# xmcd
#
# Track frame offsets: 
#        150
#        12605
#        22765
#        33842
#        47040
#        58140
#        70765
#        81105
#        91980
#        100690
#        110632
#        120572
#        133125
#        143495
#        155275
#        166570
#        179407
#        191380
#        204122
#        216142
#        226565
#        238930
#        251470
#        266355
#
# Disc length: 3757 seconds
#
# Revision: 5
# Processed by: cddbd v1.5.2PL0 Copyright (c) Steve Scherf et al.
# Submitted via: ExactAudioCopyFreeDBPlugin 1.0
#
DISCID=300eab18
DTITLE=Various Artist - Floorpackin'
DYEAR=1900
DGENRE=Northern Soul
TTITLE0=Lenny Curtis - Nothing Can Help You Now
TTITLE1=Dean Parrish - Determination
TTITLE2=Dean Parrish - Tell Her
TTITLE3=7th Avenue Aviators - You Should O Held On
TTITLE4=Johnny Sayles - I Can't Get Enough
TTITLE5=Jackie Lee - Darkest Days
TTITLE6=Phil Flowers - Discontented
TTITLE7=Don Varner - Tear Stained Face
TTITLE8=Margaret Mandolph - Something Beautiful
TTITLE9=Pattie and The Emblems - I'm Gonna Love You A Long, Long Time
TTITLE10=Eddie Regan - Playin Hide and Seek
TTITLE11=The Steinways - You've Been Leading Me On
TTITLE12=The Capitols - Don't Say Maybe Baby
TTITLE13=Sandy Wynns - A Touch Of Venus
TTITLE14=The Ascots - Another Day
TTITLE15=Butch Baker - Fat Man At The Go-Go
TTITLE16=Willie Hutch - Love Runs Out
TTITLE17=Cliff Nobles - My Love Is Getting Stronger
TTITLE18=Natural Four - I Thought You Were Mine
TTITLE19=Edwin Starr - Scots On Swingers
TTITLE20=Timothy Wilson - Love Is Like An Itching In My Heart
TTITLE21=Jimmy Beaumont - You Got Too Much Going For You
TTITLE22=Mandrill - Never Die
TTITLE23=Carstairs - It Really Hurts Me Girl
EXTD=Floor Packin'\n24 Classic Northern Soul Floorpackers
EXTT0=
EXTT1=
EXTT2=
EXTT3=
EXTT4=
EXTT5=
EXTT6=
EXTT7=
EXTT8=
EXTT9=
EXTT10=
EXTT11=
EXTT12=
EXTT13=
EXTT14=
EXTT15=
EXTT16=
EXTT17=
EXTT18=
EXTT19=
EXTT20=
EXTT21=
EXTT22=
EXTT23=
PLAYORDER=
